<svg xmlns="http://www.w3.org/2000/svg" xmlns:xlink="http://www.w3.org/1999/xlink" width="1118" zoomAndPan="magnify" viewBox="0 0 838.5 289.499996" height="386" preserveAspectRatio="xMidYMid meet" version="1.2"><defs><clipPath id="3db3dcf5b9"><path d="M 0.472656 0 L 257 0 L 257 289 L 0.472656 289 Z M 0.472656 0 "/></clipPath><clipPath id="6571e3651a"><path d="M 21 96 L 180 96 L 180 260 L 21 260 Z M 21 96 "/></clipPath><clipPath id="abd16e8e62"><path d="M 187.425781 0.00390625 L 258.066406 226.59375 L 58.699219 288.75 L -11.945312 62.160156 Z M 187.425781 0.00390625 "/></clipPath><clipPath id="a94472fb88"><path d="M 187.425781 0.00390625 L 258.066406 226.59375 L 58.699219 288.75 L -11.945312 62.160156 Z M 187.425781 0.00390625 "/></clipPath><clipPath id="46cbb52033"><path d="M 66 29 L 225 29 L 225 193 L 66 193 Z M 66 29 "/></clipPath><clipPath id="5462ef8617"><path d="M 187.425781 0.00390625 L 258.066406 226.59375 L 58.699219 288.75 L -11.945312 62.160156 Z M 187.425781 0.00390625 "/></clipPath><clipPath id="be89596c95"><path d="M 187.425781 0.00390625 L 258.066406 226.59375 L 58.699219 288.75 L -11.945312 62.160156 Z M 187.425781 0.00390625 "/></clipPath><clipPath id="6cda337634"><path d="M 90 102.800781 L 190.367188 102.800781 L 190.367188 179 L 90 179 Z M 90 102.800781 "/></clipPath><clipPath id="d92ff504ec"><path d="M 64 102.800781 L 164 102.800781 L 164 179 L 64 179 Z M 64 102.800781 "/></clipPath><clipPath id="0feaaa4c53"><path d="M 68 124 L 214.253906 124 L 214.253906 225 L 68 225 Z M 68 124 "/></clipPath><clipPath id="3aae67a95c"><path d="M 31.621094 66 L 178 66 L 178 168 L 31.621094 168 Z M 31.621094 66 "/></clipPath><clipPath id="02682f706c"><rect x="0" width="257" y="0" height="289"/></clipPath><clipPath id="420a55bc7d"><rect x="0" width="571" y="0" height="115"/></clipPath></defs><g id="26cbf8494b"><g clip-rule="nonzero" clip-path="url(#3db3dcf5b9)"><g transform="matrix(1,0,0,1,0.000000000000000056,0)"><g clip-path="url(#02682f706c)"><g clip-rule="nonzero" clip-path="url(#6571e3651a)"><g clip-rule="nonzero" clip-path="url(#abd16e8e62)"><g clip-rule="nonzero" clip-path="url(#a94472fb88)"><path style=" stroke:none;fill-rule:nonzero;fill:#ffde59;fill-opacity:1;" d="M 153.03125 259.625 L 179.460938 230.960938 L 141.425781 222.398438 L 144.390625 231.914062 C 137.625 233.808594 130.71875 235.269531 123.621094 235.667969 C 114.617188 235.972656 105.53125 235.085938 96.625 232.960938 C 78.949219 228.316406 62.394531 218.5 49.933594 204.472656 C 37.5625 190.460938 29.078125 172.589844 26.542969 153.535156 C 23.917969 134.519531 27.203125 114.507812 35.957031 96.90625 C 25.84375 113.753906 20.742188 133.871094 21.90625 153.972656 C 22.980469 174.082031 30.371094 193.921875 42.730469 210.375 C 55.164062 226.816406 72.730469 239.410156 92.609375 246.332031 C 102.605469 249.597656 113.082031 251.496094 123.714844 251.960938 C 132.460938 252.171875 141.183594 251.039062 149.800781 249.261719 Z M 153.03125 259.625 "/></g></g></g><g clip-rule="nonzero" clip-path="url(#46cbb52033)"><g clip-rule="nonzero" clip-path="url(#5462ef8617)"><g clip-rule="nonzero" clip-path="url(#be89596c95)"><path style=" stroke:none;fill-rule:nonzero;fill:#ffde59;fill-opacity:1;" d="M 149.609375 56.042969 C 167.289062 60.683594 183.84375 70.503906 196.304688 84.53125 C 208.675781 98.542969 217.160156 116.414062 219.695312 135.46875 C 222.316406 154.484375 219.035156 174.492188 210.277344 192.097656 C 220.394531 175.25 225.492188 155.132812 224.328125 135.03125 C 223.253906 114.921875 215.863281 95.082031 203.503906 78.628906 C 191.070312 62.1875 173.503906 49.59375 153.628906 42.671875 C 143.628906 39.40625 133.152344 37.507812 122.519531 37.042969 C 113.773438 36.832031 105.050781 37.964844 96.4375 39.742188 L 93.203125 29.378906 L 66.773438 58.042969 L 104.808594 66.605469 L 101.84375 57.089844 C 108.609375 55.195312 115.515625 53.734375 122.613281 53.335938 C 131.617188 53.03125 140.707031 53.917969 149.609375 56.042969 Z M 149.609375 56.042969 "/></g></g></g><g clip-rule="nonzero" clip-path="url(#6cda337634)"><path style=" stroke:none;fill-rule:nonzero;fill:#38b6ff;fill-opacity:1;" d="M 182.714844 102.800781 L 121.832031 164.128906 L 97.742188 139.585938 L 90.304688 147.082031 L 121.832031 178.996094 L 190.144531 110.136719 Z M 182.714844 102.800781 "/></g><g clip-rule="nonzero" clip-path="url(#d92ff504ec)"><path style=" stroke:none;fill-rule:nonzero;fill:#38b6ff;fill-opacity:1;" d="M 156.441406 102.800781 L 95.558594 164.128906 L 71.46875 139.585938 L 64.03125 147.082031 L 95.558594 178.996094 L 163.871094 110.136719 Z M 156.441406 102.800781 "/></g><g clip-rule="nonzero" clip-path="url(#0feaaa4c53)"><path style=" stroke:none;fill-rule:nonzero;fill:#00bf63;fill-opacity:1;" d="M 214.003906 149.949219 L 199.039062 124.03125 L 184.074219 149.949219 L 191.722656 149.949219 C 191.566406 155.339844 191.058594 160.734375 189.730469 166.023438 C 187.894531 172.691406 185.171875 179.148438 181.582031 185.1875 C 174.140625 197.078125 163.164062 206.96875 150.039062 212.894531 C 136.945312 218.757812 121.914062 220.890625 107.371094 218.394531 C 92.839844 215.972656 78.925781 208.996094 68.03125 198.558594 C 78.0625 209.820312 91.640625 218.152344 106.632812 221.890625 C 121.613281 225.699219 137.839844 224.816406 152.71875 219.515625 C 167.605469 214.164062 180.847656 204.167969 190.460938 191.1875 C 195.136719 184.605469 198.921875 177.363281 201.691406 169.675781 C 203.839844 163.316406 205.003906 156.667969 205.671875 149.949219 Z M 214.003906 149.949219 "/></g><g clip-rule="nonzero" clip-path="url(#3aae67a95c)"><path style=" stroke:none;fill-rule:nonzero;fill:#00bf63;fill-opacity:1;" d="M 64.050781 105.949219 C 71.488281 94.054688 82.464844 84.167969 95.589844 78.242188 C 108.683594 72.378906 123.714844 70.242188 138.257812 72.738281 C 152.792969 75.164062 166.703125 82.136719 177.601562 92.574219 C 167.566406 81.316406 153.988281 72.984375 138.996094 69.242188 C 124.015625 65.4375 107.789062 66.320312 92.910156 71.617188 C 78.023438 76.972656 64.785156 86.96875 55.167969 99.949219 C 50.492188 106.53125 46.710938 113.773438 43.941406 121.457031 C 41.789062 127.816406 40.625 134.46875 39.960938 141.1875 L 31.628906 141.1875 L 46.59375 167.101562 L 61.554688 141.1875 L 53.90625 141.1875 C 54.0625 135.796875 54.570312 130.402344 55.898438 125.109375 C 57.734375 118.445312 60.457031 111.988281 64.050781 105.949219 Z M 64.050781 105.949219 "/></g></g></g></g><g transform="matrix(1,0,0,1,238,87)"><g clip-path="url(#420a55bc7d)"><g style="fill:#1d626f;fill-opacity:1;"><g transform="translate(0.214161, 92.040591)"><path style="stroke:none" d="M 38.640625 -58.015625 C 31.785156 -58.015625 25.941406 -55.597656 21.109375 -50.765625 C 16.242188 -45.898438 13.8125 -40.03125 13.8125 -33.15625 C 13.8125 -26.269531 16.234375 -20.398438 21.078125 -15.546875 C 25.929688 -10.703125 31.796875 -8.28125 38.671875 -8.28125 C 44.890625 -8.28125 50.273438 -10.269531 54.828125 -14.25 L 62.671875 -6.390625 C 55.941406 -0.285156 47.941406 2.765625 38.671875 2.765625 C 28.742188 2.765625 20.273438 -0.738281 13.265625 -7.75 C 6.265625 -14.757812 2.765625 -23.226562 2.765625 -33.15625 C 2.765625 -43.082031 6.273438 -51.554688 13.296875 -58.578125 C 20.285156 -65.566406 28.734375 -69.0625 38.640625 -69.0625 L 38.671875 -69.0625 C 48.609375 -69.0625 57.085938 -65.566406 64.109375 -58.578125 C 64.566406 -58.117188 65.007812 -57.644531 65.4375 -57.15625 L 57.625 -49.34375 C 57.195312 -49.832031 56.753906 -50.304688 56.296875 -50.765625 C 51.429688 -55.597656 45.554688 -58.015625 38.671875 -58.015625 Z M 38.640625 -58.015625 "/></g></g><g style="fill:#1d626f;fill-opacity:1;"><g transform="translate(66.481182, 92.040591)"><path style="stroke:none" d="M 13.8125 -27.625 L 13.8125 0 L 2.765625 0 L 2.765625 -66.3125 L 13.8125 -66.3125 L 13.8125 -38.671875 L 41.4375 -38.671875 L 41.4375 -66.3125 L 52.484375 -66.3125 L 52.484375 0 L 41.4375 0 L 41.4375 -27.625 Z M 13.8125 -27.625 "/></g></g><g style="fill:#1d626f;fill-opacity:1;"><g transform="translate(118.502236, 92.040591)"><path style="stroke:none" d="M 35.921875 -45.578125 L 15.1875 0 L 2.765625 0 L 35.921875 -71.828125 L 69.0625 0 L 56.640625 0 Z M 35.921875 -45.578125 "/></g></g><g style="fill:#1d626f;fill-opacity:1;"><g transform="translate(170.954981, 92.040591)"><path style="stroke:none" d="M 30.390625 -55.25 L 30.390625 0 L 19.34375 0 L 19.34375 -55.25 L 2.765625 -55.25 L 2.765625 -66.3125 L 46.96875 -66.3125 L 46.96875 -55.25 Z M 30.390625 -55.25 "/></g></g><g style="fill:#1d626f;fill-opacity:1;"><g transform="translate(221.162909, 92.040591)"><path style="stroke:none" d="M 13.8125 -27.625 L 13.8125 0 L 2.765625 0 L 2.765625 -66.3125 L 13.8125 -66.3125 L 13.8125 -38.671875 L 41.4375 -38.671875 L 41.4375 -66.3125 L 52.484375 -66.3125 L 52.484375 0 L 41.4375 0 L 41.4375 -27.625 Z M 13.8125 -27.625 "/></g></g><g style="fill:#1d626f;fill-opacity:1;"><g transform="translate(283.242475, 92.040591)"><path style="stroke:none" d="M 2.765625 -22.109375 L 2.765625 -66.3125 L 13.8125 -66.3125 L 13.8125 -22.109375 C 13.8125 -18.273438 15.15625 -15.007812 17.84375 -12.3125 C 20.539062 -9.625 23.800781 -8.28125 27.625 -8.28125 C 31.457031 -8.28125 34.71875 -9.625 37.40625 -12.3125 C 40.09375 -15.007812 41.4375 -18.273438 41.4375 -22.109375 L 41.4375 -66.3125 L 52.484375 -66.3125 L 52.484375 -22.109375 C 52.484375 -15.222656 50.054688 -9.351562 45.203125 -4.5 C 40.359375 0.34375 34.5 2.765625 27.625 2.765625 C 20.75 2.765625 14.882812 0.34375 10.03125 -4.5 C 5.1875 -9.351562 2.765625 -15.222656 2.765625 -22.109375 Z M 2.765625 -22.109375 "/></g></g><g style="fill:#1d626f;fill-opacity:1;"><g transform="translate(345.322059, 92.040591)"><path style="stroke:none" d="M 22.109375 -38.671875 C 24.410156 -38.671875 26.363281 -39.476562 27.96875 -41.09375 C 29.582031 -42.707031 30.390625 -44.664062 30.390625 -46.96875 C 30.390625 -49.269531 29.582031 -51.222656 27.96875 -52.828125 C 26.363281 -54.441406 24.410156 -55.25 22.109375 -55.25 L 13.8125 -55.25 L 13.8125 -11.046875 L 33.15625 -11.046875 C 35.457031 -11.046875 37.410156 -11.851562 39.015625 -13.46875 C 40.628906 -15.082031 41.4375 -17.039062 41.4375 -19.34375 C 41.4375 -21.644531 40.628906 -23.597656 39.015625 -25.203125 C 37.410156 -26.816406 35.457031 -27.625 33.15625 -27.625 L 22.109375 -27.625 Z M 2.765625 -66.3125 L 22.109375 -66.3125 C 27.453125 -66.3125 32.007812 -64.425781 35.78125 -60.65625 C 39.550781 -56.882812 41.4375 -52.320312 41.4375 -46.96875 C 41.4375 -43.601562 40.691406 -40.535156 39.203125 -37.765625 C 42.015625 -36.878906 44.5625 -35.296875 46.84375 -33.015625 C 50.601562 -29.253906 52.484375 -24.695312 52.484375 -19.34375 C 52.484375 -13.988281 50.597656 -9.425781 46.828125 -5.65625 C 43.066406 -1.882812 38.507812 0 33.15625 0 L 2.765625 0 Z M 2.765625 -66.3125 "/></g></g><g style="fill:#1d626f;fill-opacity:1;"><g transform="translate(398.810871, 92.040591)"><path style="stroke:none" d="M 9.5 -57.796875 C 10.445312 -59.835938 11.769531 -61.707031 13.46875 -63.40625 C 17.238281 -67.175781 21.800781 -69.0625 27.15625 -69.0625 C 32.507812 -69.0625 37.066406 -67.175781 40.828125 -63.40625 C 44.597656 -59.632812 46.484375 -55.078125 46.484375 -49.734375 C 46.484375 -45.265625 44.644531 -41.578125 40.96875 -38.671875 C 48.332031 -34.992188 52.015625 -29.472656 52.015625 -22.109375 C 52.015625 -15.222656 49.585938 -9.351562 44.734375 -4.5 C 39.890625 0.34375 34.03125 2.765625 27.15625 2.765625 C 20.269531 2.765625 14.410156 0.332031 9.578125 -4.53125 C 5.953125 -8.125 3.679688 -12.3125 2.765625 -17.09375 L 13.59375 -19.375 C 14.082031 -16.707031 15.347656 -14.363281 17.390625 -12.34375 C 20.066406 -9.632812 23.320312 -8.28125 27.15625 -8.28125 C 30.976562 -8.28125 34.234375 -9.625 36.921875 -12.3125 C 39.617188 -15.007812 40.96875 -18.273438 40.96875 -22.109375 C 40.101562 -27.742188 34.359375 -30.5625 23.734375 -30.5625 C 22.210938 -30.5625 20.585938 -30.503906 18.859375 -30.390625 L 18.859375 -41.4375 C 29.910156 -41.4375 35.4375 -44.203125 35.4375 -49.734375 C 35.4375 -52.035156 34.628906 -53.988281 33.015625 -55.59375 C 31.410156 -57.207031 29.457031 -58.015625 27.15625 -58.015625 C 24.851562 -58.015625 22.894531 -57.207031 21.28125 -55.59375 C 20.1875 -54.5 19.453125 -53.25 19.078125 -51.84375 Z M 9.5 -57.796875 "/></g></g><g style="fill:#1d626f;fill-opacity:1;"><g transform="translate(451.824817, 92.040591)"><path style="stroke:none" d="M 27.625 -8.28125 C 31.457031 -8.28125 34.71875 -9.625 37.40625 -12.3125 C 40.09375 -15.007812 41.4375 -18.273438 41.4375 -22.109375 C 41.4375 -25.929688 40.09375 -29.1875 37.40625 -31.875 C 34.71875 -34.570312 31.457031 -35.921875 27.625 -35.921875 C 23.800781 -35.921875 20.539062 -34.570312 17.84375 -31.875 C 15.15625 -29.1875 13.8125 -25.929688 13.8125 -22.109375 C 13.8125 -18.273438 15.15625 -15.007812 17.84375 -12.3125 C 20.539062 -9.625 23.800781 -8.28125 27.625 -8.28125 Z M 44.8125 -66.3125 L 28.96875 -46.921875 C 35.269531 -46.628906 40.691406 -44.226562 45.234375 -39.71875 C 50.066406 -34.851562 52.484375 -28.984375 52.484375 -22.109375 C 52.484375 -15.222656 50.054688 -9.351562 45.203125 -4.5 C 40.359375 0.34375 34.5 2.765625 27.625 2.765625 C 20.75 2.765625 14.882812 0.34375 10.03125 -4.5 C 5.1875 -9.351562 2.765625 -15.222656 2.765625 -22.109375 C 2.765625 -27.285156 4.128906 -31.875 6.859375 -35.875 L 6.828125 -35.921875 L 7.375 -36.5625 C 7.84375 -37.226562 8.347656 -37.875 8.890625 -38.5 L 31.515625 -66.3125 Z M 44.8125 -66.3125 "/></g></g><g style="fill:#1d626f;fill-opacity:1;"><g transform="translate(505.31363, 92.040591)"><path style="stroke:none" d="M 33.15625 2.765625 C 24.75 2.765625 17.582031 -0.738281 11.65625 -7.75 C 5.726562 -14.757812 2.765625 -23.226562 2.765625 -33.15625 C 2.765625 -43.082031 5.726562 -51.546875 11.65625 -58.546875 C 17.582031 -65.554688 24.75 -69.0625 33.15625 -69.0625 C 41.550781 -69.0625 48.710938 -65.554688 54.640625 -58.546875 C 60.578125 -51.546875 63.546875 -43.082031 63.546875 -33.15625 C 63.546875 -23.226562 60.578125 -14.757812 54.640625 -7.75 C 48.710938 -0.738281 41.550781 2.765625 33.15625 2.765625 Z M 33.15625 -8.28125 C 38.507812 -8.28125 43.066406 -10.703125 46.828125 -15.546875 C 50.597656 -20.398438 52.484375 -26.269531 52.484375 -33.15625 C 52.484375 -40.03125 50.597656 -45.890625 46.828125 -50.734375 C 43.066406 -55.585938 38.507812 -58.015625 33.15625 -58.015625 C 27.800781 -58.015625 23.238281 -55.585938 19.46875 -50.734375 C 15.695312 -45.890625 13.8125 -40.03125 13.8125 -33.15625 C 13.8125 -26.269531 15.695312 -20.398438 19.46875 -15.546875 C 23.238281 -10.703125 27.800781 -8.28125 33.15625 -8.28125 Z M 33.15625 -8.28125 "/></g></g></g></g></g></svg>