<svg xmlns="http://www.w3.org/2000/svg" xmlns:xlink="http://www.w3.org/1999/xlink" width="512" zoomAndPan="magnify" viewBox="0 0 384 383.999986" height="512" preserveAspectRatio="xMidYMid meet" version="1.2"><defs><clipPath id="4192bd68a6"><path d="M 65 144 L 263 144 L 263 348 L 65 348 Z M 65 144 "/></clipPath><clipPath id="11f805c2fb"><path d="M 272.265625 23.285156 L 360.4375 306.109375 L 111.269531 383.789062 L 23.09375 100.96875 Z M 272.265625 23.285156 "/></clipPath><clipPath id="3b44e8e9e9"><path d="M 272.265625 23.285156 L 360.4375 306.109375 L 111.269531 383.789062 L 23.09375 100.96875 Z M 272.265625 23.285156 "/></clipPath><clipPath id="6c9e6b0830"><path d="M 121 59 L 319 59 L 319 264 L 121 264 Z M 121 59 "/></clipPath><clipPath id="5265d68644"><path d="M 272.265625 23.285156 L 360.4375 306.109375 L 111.269531 383.789062 L 23.09375 100.96875 Z M 272.265625 23.285156 "/></clipPath><clipPath id="c740eef8bf"><path d="M 272.265625 23.285156 L 360.4375 306.109375 L 111.269531 383.789062 L 23.09375 100.96875 Z M 272.265625 23.285156 "/></clipPath><clipPath id="2a1e0559af"><path d="M 121 139.472656 L 298.945312 139.472656 L 298.945312 274.472656 L 121 274.472656 Z M 121 139.472656 "/></clipPath><clipPath id="c4fc4fea20"><path d="M 74.695312 139.472656 L 253 139.472656 L 253 274.472656 L 74.695312 274.472656 Z M 74.695312 139.472656 "/></clipPath></defs><g id="a37ad0653c"><path style=" stroke:none;fill-rule:nonzero;fill:#00bf63;fill-opacity:1;" d="M 384 216.328125 L 352.492188 161.765625 L 320.992188 216.328125 L 337.09375 216.328125 C 336.761719 227.679688 335.695312 239.039062 332.898438 250.179688 C 329.03125 264.21875 323.296875 277.8125 315.738281 290.523438 C 300.070312 315.5625 276.960938 336.382812 249.328125 348.863281 C 221.761719 361.207031 190.109375 365.699219 159.488281 360.445312 C 128.890625 355.347656 99.601562 340.65625 76.65625 318.683594 C 97.78125 342.390625 126.367188 359.933594 157.933594 367.808594 C 189.480469 375.824219 223.640625 373.964844 254.96875 362.808594 C 286.3125 351.535156 314.191406 330.492188 334.433594 303.15625 C 344.28125 289.300781 352.246094 274.054688 358.078125 257.867188 C 362.605469 244.480469 365.058594 230.476562 366.457031 216.328125 Z M 384 216.328125 "/><path style=" stroke:none;fill-rule:nonzero;fill:#00bf63;fill-opacity:1;" d="M 68.273438 123.691406 C 83.941406 98.648438 107.050781 77.832031 134.683594 65.347656 C 162.25 53.003906 193.902344 48.511719 224.523438 53.765625 C 255.121094 58.867188 284.410156 73.554688 307.355469 95.53125 C 286.230469 71.824219 257.644531 54.28125 226.078125 46.40625 C 194.53125 38.394531 160.371094 40.25 129.039062 51.40625 C 97.695312 62.679688 69.820312 83.722656 49.578125 111.058594 C 39.730469 124.914062 31.765625 140.160156 25.933594 156.347656 C 21.402344 169.734375 18.953125 183.738281 17.554688 197.886719 L 0.0078125 197.886719 L 31.519531 252.449219 L 63.019531 197.886719 L 46.917969 197.886719 C 47.246094 186.535156 48.316406 175.175781 51.113281 164.035156 C 54.976562 149.996094 60.714844 136.402344 68.273438 123.691406 Z M 68.273438 123.691406 "/><g clip-rule="nonzero" clip-path="url(#4192bd68a6)"><g clip-rule="nonzero" clip-path="url(#11f805c2fb)"><g clip-rule="nonzero" clip-path="url(#3b44e8e9e9)"><path style=" stroke:none;fill-rule:nonzero;fill:#ffde59;fill-opacity:1;" d="M 229.339844 347.332031 L 262.328125 311.554688 L 214.851562 300.871094 L 218.554688 312.746094 C 210.109375 315.109375 201.488281 316.933594 192.628906 317.433594 C 181.390625 317.808594 170.046875 316.707031 158.9375 314.054688 C 136.871094 308.257812 116.207031 296.003906 100.652344 278.496094 C 85.210938 261.007812 74.621094 238.699219 71.457031 214.914062 C 68.183594 191.179688 72.28125 166.203125 83.210938 144.234375 C 70.585938 165.261719 64.21875 190.371094 65.671875 215.460938 C 67.015625 240.5625 76.238281 265.324219 91.664062 285.863281 C 107.183594 306.382812 129.109375 322.101562 153.917969 330.742188 C 166.398438 334.820312 179.472656 337.1875 192.75 337.765625 C 203.660156 338.03125 214.550781 336.617188 225.304688 334.398438 Z M 229.339844 347.332031 "/></g></g></g><g clip-rule="nonzero" clip-path="url(#6c9e6b0830)"><g clip-rule="nonzero" clip-path="url(#5265d68644)"><g clip-rule="nonzero" clip-path="url(#c740eef8bf)"><path style=" stroke:none;fill-rule:nonzero;fill:#ffde59;fill-opacity:1;" d="M 225.066406 93.226562 C 247.132812 99.023438 267.796875 111.277344 283.351562 128.785156 C 298.792969 146.273438 309.382812 168.582031 312.546875 192.367188 C 315.816406 216.101562 311.722656 241.074219 300.789062 263.046875 C 313.417969 242.019531 319.78125 216.910156 318.332031 191.820312 C 316.988281 166.71875 307.761719 141.957031 292.335938 121.417969 C 276.820312 100.898438 254.890625 85.179688 230.082031 76.539062 C 217.601562 72.460938 204.527344 70.09375 191.253906 69.515625 C 180.339844 69.253906 169.453125 70.664062 158.695312 72.882812 L 154.664062 59.949219 L 121.671875 95.726562 L 169.148438 106.410156 L 165.445312 94.535156 C 173.890625 92.171875 182.515625 90.347656 191.371094 89.847656 C 202.613281 89.472656 213.953125 90.574219 225.066406 93.226562 Z M 225.066406 93.226562 "/></g></g></g><g clip-rule="nonzero" clip-path="url(#2a1e0559af)"><path style=" stroke:none;fill-rule:nonzero;fill:#38b6ff;fill-opacity:1;" d="M 285.511719 139.472656 L 177.40625 248.367188 L 134.632812 204.785156 L 121.425781 218.101562 L 177.40625 274.765625 L 298.703125 152.496094 Z M 285.511719 139.472656 "/></g><g clip-rule="nonzero" clip-path="url(#c4fc4fea20)"><path style=" stroke:none;fill-rule:nonzero;fill:#38b6ff;fill-opacity:1;" d="M 238.859375 139.472656 L 130.753906 248.367188 L 87.980469 204.785156 L 74.773438 218.101562 L 130.753906 274.765625 L 252.050781 152.496094 Z M 238.859375 139.472656 "/></g></g></svg>