<svg xmlns="http://www.w3.org/2000/svg" xmlns:xlink="http://www.w3.org/1999/xlink" width="2458" zoomAndPan="magnify" viewBox="0 0 1843.5 383.999986" height="512" preserveAspectRatio="xMidYMid meet" version="1.0"><defs><g/><clipPath id="c79c29c38e"><path d="M 0 0.0507812 L 1843 0.0507812 L 1843 383.945312 L 0 383.945312 Z M 0 0.0507812 " clip-rule="nonzero"/></clipPath><clipPath id="16003195d8"><path d="M 38 0.0507812 L 475 0.0507812 L 475 383.945312 L 38 383.945312 Z M 38 0.0507812 " clip-rule="nonzero"/></clipPath><clipPath id="57e912768a"><path d="M 87 140 L 436.589844 140 L 436.589844 380 L 87 380 Z M 87 140 " clip-rule="nonzero"/></clipPath><clipPath id="6dd7930e6b"><path d="M 0.390625 3 L 350 3 L 350 244 L 0.390625 244 Z M 0.390625 3 " clip-rule="nonzero"/></clipPath><clipPath id="81e90a83df"><path d="M 70 122 L 301 122 L 301 360 L 70 360 Z M 70 122 " clip-rule="nonzero"/></clipPath><clipPath id="9106e9ce43"><path d="M 311.855469 -18.316406 L 414.746094 311.710938 L 124.550781 402.179688 L 21.660156 72.15625 Z M 311.855469 -18.316406 " clip-rule="nonzero"/></clipPath><clipPath id="2b8f3c3e44"><path d="M 311.855469 -18.316406 L 414.746094 311.710938 L 124.550781 402.179688 L 21.660156 72.15625 Z M 311.855469 -18.316406 " clip-rule="nonzero"/></clipPath><clipPath id="25d35d58f9"><path d="M 136 24 L 366 24 L 366 262 L 136 262 Z M 136 24 " clip-rule="nonzero"/></clipPath><clipPath id="d7359f8c96"><path d="M 311.855469 -18.316406 L 414.746094 311.710938 L 124.550781 402.179688 L 21.660156 72.15625 Z M 311.855469 -18.316406 " clip-rule="nonzero"/></clipPath><clipPath id="adcada7158"><path d="M 311.855469 -18.316406 L 414.746094 311.710938 L 124.550781 402.179688 L 21.660156 72.15625 Z M 311.855469 -18.316406 " clip-rule="nonzero"/></clipPath><clipPath id="40f9f9fa3a"><path d="M 159 130.703125 L 319.421875 130.703125 L 319.421875 253.484375 L 159 253.484375 Z M 159 130.703125 " clip-rule="nonzero"/></clipPath><clipPath id="d734fc5a1a"><path d="M 116.777344 130.703125 L 278 130.703125 L 278 253.484375 L 116.777344 253.484375 Z M 116.777344 130.703125 " clip-rule="nonzero"/></clipPath><clipPath id="af3cadb6a2"><rect x="0" width="437" y="0" height="384"/></clipPath><clipPath id="b1de619b25"><rect x="0" width="1340" y="0" height="370"/></clipPath></defs><g clip-path="url(#c79c29c38e)"><path fill="#ffffff" d="M 0 0.0507812 L 1843 0.0507812 L 1843 383.949219 L 0 383.949219 Z M 0 0.0507812 " fill-opacity="1" fill-rule="nonzero"/><path fill="#ffffff" d="M 0 0.0507812 L 1843 0.0507812 L 1843 383.949219 L 0 383.949219 Z M 0 0.0507812 " fill-opacity="1" fill-rule="nonzero"/></g><g clip-path="url(#16003195d8)"><g transform="matrix(1, 0, 0, 1, 38, -0.000000000000026167)"><g clip-path="url(#af3cadb6a2)"><g clip-path="url(#57e912768a)"><path fill="#00bf63" d="M 436.21875 202.371094 L 400.457031 140.441406 L 364.703125 202.371094 L 382.980469 202.371094 C 382.605469 215.253906 381.390625 228.144531 378.21875 240.789062 C 373.832031 256.722656 367.320312 272.152344 358.738281 286.582031 C 340.957031 315 314.726562 338.632812 283.367188 352.792969 C 252.078125 366.804688 216.152344 371.90625 181.398438 365.941406 C 146.671875 360.152344 113.425781 343.480469 87.382812 318.539062 C 111.363281 345.449219 143.804688 365.363281 179.636719 374.300781 C 215.4375 383.394531 254.210938 381.285156 289.769531 368.625 C 325.34375 355.828125 356.984375 331.945312 379.960938 300.917969 C 391.136719 285.191406 400.175781 267.886719 406.796875 249.519531 C 411.9375 234.320312 414.71875 218.429688 416.308594 202.371094 Z M 436.21875 202.371094 " fill-opacity="1" fill-rule="nonzero"/></g><g clip-path="url(#6dd7930e6b)"><path fill="#00bf63" d="M 77.871094 97.226562 C 95.652344 68.804688 121.882812 45.175781 153.246094 31.011719 C 184.535156 17 220.460938 11.898438 255.214844 17.863281 C 289.941406 23.652344 323.183594 40.320312 349.226562 65.265625 C 325.25 38.359375 292.804688 18.445312 256.976562 9.507812 C 221.171875 0.414062 182.398438 2.523438 146.839844 15.183594 C 111.265625 27.980469 79.628906 51.863281 56.652344 82.890625 C 45.476562 98.617188 36.433594 115.921875 29.816406 134.289062 C 24.675781 149.484375 21.894531 165.378906 20.304688 181.4375 L 0.394531 181.4375 L 36.15625 243.367188 L 71.910156 181.4375 L 53.632812 181.4375 C 54.007812 168.554688 55.21875 155.660156 58.394531 143.019531 C 62.78125 127.085938 69.289062 111.65625 77.871094 97.226562 Z M 77.871094 97.226562 " fill-opacity="1" fill-rule="nonzero"/></g><g clip-path="url(#81e90a83df)"><g clip-path="url(#9106e9ce43)"><g clip-path="url(#2b8f3c3e44)"><path fill="#ffde59" d="M 261.804688 359.546875 L 300.273438 317.828125 L 244.914062 305.367188 L 249.230469 319.214844 C 239.382812 321.972656 229.332031 324.097656 219.003906 324.679688 C 205.894531 325.121094 192.671875 323.832031 179.714844 320.738281 C 153.984375 313.980469 129.890625 299.691406 111.753906 279.277344 C 93.75 258.886719 81.402344 232.875 77.710938 205.140625 C 73.894531 177.464844 78.671875 148.34375 91.417969 122.726562 C 76.695312 147.246094 69.273438 176.523438 70.964844 205.777344 C 72.53125 235.046875 83.285156 263.921875 101.273438 287.871094 C 119.367188 311.796875 144.933594 330.125 173.863281 340.203125 C 188.417969 344.953125 203.660156 347.714844 219.140625 348.390625 C 231.867188 348.695312 244.5625 347.050781 257.101562 344.460938 Z M 261.804688 359.546875 " fill-opacity="1" fill-rule="nonzero"/></g></g></g><g clip-path="url(#25d35d58f9)"><g clip-path="url(#d7359f8c96)"><g clip-path="url(#adcada7158)"><path fill="#ffde59" d="M 256.824219 63.25 C 282.554688 70.007812 306.648438 84.296875 324.789062 104.710938 C 342.789062 125.105469 355.140625 151.113281 358.828125 178.851562 C 362.644531 206.527344 357.867188 235.644531 345.121094 261.265625 C 359.84375 236.746094 367.265625 207.464844 365.574219 178.214844 C 364.007812 148.941406 353.25 120.070312 335.261719 96.121094 C 317.167969 72.195312 291.601562 53.867188 262.671875 43.789062 C 248.121094 39.035156 232.875 36.277344 217.398438 35.601562 C 204.671875 35.292969 191.976562 36.941406 179.433594 39.53125 L 174.734375 24.445312 L 136.265625 66.164062 L 191.625 78.621094 L 187.304688 64.777344 C 197.152344 62.019531 207.207031 59.890625 217.535156 59.308594 C 230.640625 58.871094 243.867188 60.15625 256.824219 63.25 Z M 256.824219 63.25 " fill-opacity="1" fill-rule="nonzero"/></g></g></g><g clip-path="url(#40f9f9fa3a)"><path fill="#38b6ff" d="M 307.78125 130.703125 L 209.839844 229.363281 L 171.085938 189.878906 L 159.121094 201.941406 L 209.839844 253.277344 L 319.734375 142.503906 Z M 307.78125 130.703125 " fill-opacity="1" fill-rule="nonzero"/></g><g clip-path="url(#d734fc5a1a)"><path fill="#38b6ff" d="M 265.515625 130.703125 L 167.574219 229.363281 L 128.820312 189.878906 L 116.851562 201.941406 L 167.574219 253.277344 L 277.46875 142.503906 Z M 265.515625 130.703125 " fill-opacity="1" fill-rule="nonzero"/></g></g></g></g><g transform="matrix(1, 0, 0, 1, 500, 7)"><g clip-path="url(#b1de619b25)"><g fill="#216d00" fill-opacity="1"><g transform="translate(8.781224, 290.694491)"><g><path d="M 127.175781 -180.0625 C 107.644531 -180.0625 90.984375 -173.171875 77.203125 -159.386719 C 63.324219 -145.507812 56.386719 -128.757812 56.386719 -109.128906 C 56.386719 -89.503906 63.300781 -72.773438 77.132812 -58.941406 C 90.960938 -45.113281 107.691406 -38.195312 127.316406 -38.195312 C 145.050781 -38.195312 160.371094 -43.835938 173.28125 -55.113281 L 180.964844 -61.824219 L 222.148438 -20.640625 L 213.652344 -12.941406 C 189.40625 9.023438 160.625 20.007812 127.316406 20.007812 C 91.621094 20.007812 61.175781 7.410156 35.976562 -17.789062 C 10.777344 -42.988281 -1.820312 -73.433594 -1.820312 -109.128906 C -1.820312 -144.824219 10.800781 -175.296875 36.046875 -200.542969 C 61.199219 -225.691406 91.574219 -238.265625 127.175781 -238.265625 L 127.316406 -238.265625 C 163.003906 -238.265625 193.46875 -225.699219 218.714844 -200.558594 C 220.402344 -198.871094 222.03125 -197.136719 223.601562 -195.355469 L 230.386719 -187.667969 L 189.199219 -146.484375 L 181.515625 -155.195312 C 180.242188 -156.632812 178.929688 -158.03125 177.574219 -159.386719 C 163.710938 -173.171875 146.957031 -180.0625 127.316406 -180.0625 Z M 127.175781 -201.890625 L 127.316406 -201.890625 C 152.960938 -201.890625 174.855469 -192.867188 193.011719 -174.820312 C 194.6875 -173.144531 196.308594 -171.417969 197.882812 -169.636719 L 189.699219 -162.414062 L 181.980469 -170.132812 L 207.699219 -195.851562 L 215.417969 -188.136719 L 207.234375 -180.914062 C 205.960938 -182.355469 204.65625 -183.746094 203.3125 -185.089844 C 182.324219 -205.988281 156.996094 -216.4375 127.316406 -216.4375 L 127.175781 -216.4375 C 97.601562 -216.4375 72.371094 -205.996094 51.484375 -185.105469 C 30.5 -164.125 20.007812 -138.796875 20.007812 -109.128906 C 20.007812 -79.460938 30.476562 -54.160156 51.410156 -33.222656 C 72.347656 -12.289062 97.648438 -1.820312 127.316406 -1.820312 C 155.015625 -1.820312 178.90625 -10.917969 198.996094 -29.117188 L 206.324219 -21.03125 L 198.605469 -13.3125 L 172.746094 -39.175781 L 180.460938 -46.890625 L 187.640625 -38.671875 C 170.617188 -23.800781 150.511719 -16.367188 127.316406 -16.367188 C 101.664062 -16.367188 79.789062 -25.414062 61.695312 -43.507812 C 43.601562 -61.601562 34.554688 -83.476562 34.554688 -109.128906 C 34.554688 -134.785156 43.625 -156.679688 61.765625 -174.820312 C 79.8125 -192.867188 101.617188 -201.890625 127.175781 -201.890625 Z M 127.175781 -201.890625 "/></g></g></g><g fill="#216d00" fill-opacity="1"><g transform="translate(226.820378, 290.694491)"><g><path d="M 56.386719 -90.941406 L 56.386719 10.914062 L -1.820312 10.914062 L -1.820312 -229.171875 L 56.386719 -229.171875 L 56.386719 -127.316406 L 45.46875 -127.316406 L 45.46875 -138.230469 L 136.410156 -138.230469 L 136.410156 -127.316406 L 125.496094 -127.316406 L 125.496094 -229.171875 L 183.703125 -229.171875 L 183.703125 10.914062 L 125.496094 10.914062 L 125.496094 -90.941406 L 136.410156 -90.941406 L 136.410156 -80.027344 L 45.46875 -80.027344 L 45.46875 -90.941406 Z M 34.554688 -101.855469 L 147.324219 -101.855469 L 147.324219 0 L 136.410156 0 L 136.410156 -10.914062 L 172.789062 -10.914062 L 172.789062 0 L 161.875 0 L 161.875 -218.257812 L 172.789062 -218.257812 L 172.789062 -207.34375 L 136.410156 -207.34375 L 136.410156 -218.257812 L 147.324219 -218.257812 L 147.324219 -116.402344 L 34.554688 -116.402344 L 34.554688 -218.257812 L 45.46875 -218.257812 L 45.46875 -207.34375 L 9.09375 -207.34375 L 9.09375 -218.257812 L 20.007812 -218.257812 L 20.007812 0 L 9.09375 0 L 9.09375 -10.914062 L 45.46875 -10.914062 L 45.46875 0 L 34.554688 0 Z M 34.554688 -101.855469 "/></g></g></g><g fill="#216d00" fill-opacity="1"><g transform="translate(397.983699, 290.694491)"><g><path d="M 128.160156 -145.535156 L 57.046875 10.914062 L -7.964844 10.914062 L 118.222656 -262.492188 L 244.410156 10.914062 L 179.402344 10.914062 L 108.289062 -145.535156 L 118.222656 -150.054688 Z M 118.222656 -176.429688 L 196.367188 -4.515625 L 186.429688 0 L 186.429688 -10.914062 L 227.351562 -10.914062 L 227.351562 0 L 217.445312 4.574219 L 108.3125 -231.875 L 118.222656 -236.449219 L 128.132812 -231.875 L 19.003906 4.574219 L 9.09375 0 L 9.09375 -10.914062 L 50.019531 -10.914062 L 50.019531 0 L 40.082031 -4.515625 L 108.289062 -154.570312 Z M 118.222656 -176.429688 "/></g></g></g><g fill="#216d00" fill-opacity="1"><g transform="translate(570.547863, 290.694491)"><g><path d="M 110.949219 -181.882812 L 110.949219 10.914062 L 52.746094 10.914062 L 52.746094 -181.882812 L 63.660156 -181.882812 L 63.660156 -170.96875 L -1.820312 -170.96875 L -1.820312 -229.171875 L 165.515625 -229.171875 L 165.515625 -170.96875 L 100.035156 -170.96875 L 100.035156 -181.882812 Z M 89.121094 -192.796875 L 154.601562 -192.796875 L 154.601562 -181.882812 L 143.6875 -181.882812 L 143.6875 -218.257812 L 154.601562 -218.257812 L 154.601562 -207.34375 L 9.09375 -207.34375 L 9.09375 -218.257812 L 20.007812 -218.257812 L 20.007812 -181.882812 L 9.09375 -181.882812 L 9.09375 -192.796875 L 74.574219 -192.796875 L 74.574219 0 L 63.660156 0 L 63.660156 -10.914062 L 100.035156 -10.914062 L 100.035156 0 L 89.121094 0 Z M 89.121094 -192.796875 "/></g></g></g><g fill="#216d00" fill-opacity="1"><g transform="translate(735.749911, 290.694491)"><g><path d="M 56.386719 -90.941406 L 56.386719 10.914062 L -1.820312 10.914062 L -1.820312 -229.171875 L 56.386719 -229.171875 L 56.386719 -127.316406 L 45.46875 -127.316406 L 45.46875 -138.230469 L 136.410156 -138.230469 L 136.410156 -127.316406 L 125.496094 -127.316406 L 125.496094 -229.171875 L 183.703125 -229.171875 L 183.703125 10.914062 L 125.496094 10.914062 L 125.496094 -90.941406 L 136.410156 -90.941406 L 136.410156 -80.027344 L 45.46875 -80.027344 L 45.46875 -90.941406 Z M 34.554688 -101.855469 L 147.324219 -101.855469 L 147.324219 0 L 136.410156 0 L 136.410156 -10.914062 L 172.789062 -10.914062 L 172.789062 0 L 161.875 0 L 161.875 -218.257812 L 172.789062 -218.257812 L 172.789062 -207.34375 L 136.410156 -207.34375 L 136.410156 -218.257812 L 147.324219 -218.257812 L 147.324219 -116.402344 L 34.554688 -116.402344 L 34.554688 -218.257812 L 45.46875 -218.257812 L 45.46875 -207.34375 L 9.09375 -207.34375 L 9.09375 -218.257812 L 20.007812 -218.257812 L 20.007812 0 L 9.09375 0 L 9.09375 -10.914062 L 45.46875 -10.914062 L 45.46875 0 L 34.554688 0 Z M 34.554688 -101.855469 "/></g></g></g><g fill="#216d00" fill-opacity="1"><g transform="translate(940.021618, 290.694491)"><g><path d="M -1.820312 -72.753906 L -1.820312 -229.171875 L 56.386719 -229.171875 L 56.386719 -72.753906 C 56.386719 -63.167969 59.746094 -55.011719 66.472656 -48.285156 C 73.199219 -41.558594 81.355469 -38.195312 90.941406 -38.195312 C 100.527344 -38.195312 108.683594 -41.558594 115.410156 -48.285156 C 122.132812 -55.011719 125.496094 -63.167969 125.496094 -72.753906 L 125.496094 -229.171875 L 183.703125 -229.171875 L 183.703125 -72.753906 C 183.703125 -47.097656 174.65625 -25.226562 156.5625 -7.132812 C 138.46875 10.960938 116.597656 20.007812 90.941406 20.007812 C 65.285156 20.007812 43.414062 10.960938 25.320312 -7.132812 C 7.226562 -25.226562 -1.820312 -47.097656 -1.820312 -72.753906 Z M 20.007812 -72.753906 C 20.007812 -53.125 26.921875 -36.398438 40.753906 -22.566406 C 54.585938 -8.734375 71.316406 -1.820312 90.941406 -1.820312 C 110.566406 -1.820312 127.296875 -8.734375 141.128906 -22.566406 C 154.957031 -36.398438 161.875 -53.125 161.875 -72.753906 L 161.875 -218.257812 L 172.789062 -218.257812 L 172.789062 -207.34375 L 136.410156 -207.34375 L 136.410156 -218.257812 L 147.324219 -218.257812 L 147.324219 -72.753906 C 147.324219 -57.140625 141.832031 -43.839844 130.84375 -32.851562 C 119.855469 -21.863281 106.554688 -16.367188 90.941406 -16.367188 C 75.328125 -16.367188 62.027344 -21.863281 51.039062 -32.851562 C 40.050781 -43.839844 34.554688 -57.140625 34.554688 -72.753906 L 34.554688 -218.257812 L 45.46875 -218.257812 L 45.46875 -207.34375 L 9.09375 -207.34375 L 9.09375 -218.257812 L 20.007812 -218.257812 Z M 20.007812 -72.753906 "/></g></g></g><g fill="#216d00" fill-opacity="1"><g transform="translate(1144.293325, 290.694491)"><g><path d="M 72.753906 -138.230469 C 77.316406 -138.230469 81.1875 -139.820312 84.359375 -142.992188 C 87.535156 -146.167969 89.121094 -150.035156 89.121094 -154.601562 C 89.121094 -159.164062 87.535156 -163.035156 84.359375 -166.207031 C 81.1875 -169.382812 77.316406 -170.96875 72.753906 -170.96875 L 45.46875 -170.96875 L 45.46875 -181.882812 L 56.386719 -181.882812 L 56.386719 -36.375 L 45.46875 -36.375 L 45.46875 -47.289062 L 109.128906 -47.289062 C 113.695312 -47.289062 117.5625 -48.878906 120.738281 -52.050781 C 123.910156 -55.226562 125.496094 -59.09375 125.496094 -63.660156 C 125.496094 -68.222656 123.910156 -72.09375 120.738281 -75.265625 C 117.5625 -78.441406 113.695312 -80.027344 109.128906 -80.027344 L 61.839844 -80.027344 L 61.839844 -138.230469 Z M 72.753906 -116.402344 L 72.753906 -127.316406 L 83.667969 -127.316406 L 83.667969 -90.941406 L 72.753906 -90.941406 L 72.753906 -101.855469 L 109.128906 -101.855469 C 119.722656 -101.855469 128.734375 -98.136719 136.171875 -90.703125 C 143.609375 -83.265625 147.324219 -74.25 147.324219 -63.660156 C 147.324219 -53.066406 143.609375 -44.050781 136.171875 -36.617188 C 128.734375 -29.179688 119.722656 -25.460938 109.128906 -25.460938 L 34.554688 -25.460938 L 34.554688 -192.796875 L 72.753906 -192.796875 C 83.34375 -192.796875 92.359375 -189.078125 99.796875 -181.644531 C 107.230469 -174.207031 110.949219 -165.191406 110.949219 -154.601562 C 110.949219 -144.007812 107.230469 -134.992188 99.796875 -127.558594 C 92.359375 -120.121094 83.34375 -116.402344 72.753906 -116.402344 Z M 9.09375 -229.171875 L 72.753906 -229.171875 C 93.386719 -229.171875 110.972656 -221.902344 125.515625 -207.363281 C 140.054688 -192.820312 147.324219 -175.234375 147.324219 -154.601562 C 147.324219 -141.671875 144.425781 -129.851562 138.621094 -119.136719 L 129.023438 -124.332031 L 132.316406 -134.738281 C 143.292969 -131.265625 153.152344 -125.160156 161.890625 -116.421875 C 176.433594 -101.878906 183.703125 -84.292969 183.703125 -63.660156 C 183.703125 -43.023438 176.433594 -25.4375 161.890625 -10.898438 C 147.351562 3.644531 129.761719 10.914062 109.128906 10.914062 L -1.820312 10.914062 L -1.820312 -229.171875 Z M 9.09375 -207.34375 L 9.09375 -218.257812 L 20.007812 -218.257812 L 20.007812 0 L 9.09375 0 L 9.09375 -10.914062 L 109.128906 -10.914062 C 123.734375 -10.914062 136.179688 -16.054688 146.457031 -26.332031 C 156.734375 -36.609375 161.875 -49.054688 161.875 -63.660156 C 161.875 -78.265625 156.734375 -90.707031 146.457031 -100.984375 C 140.230469 -107.214844 133.320312 -111.527344 125.730469 -113.929688 L 113.132812 -117.914062 L 119.425781 -129.53125 C 123.472656 -137.003906 125.496094 -145.359375 125.496094 -154.601562 C 125.496094 -169.207031 120.359375 -181.648438 110.078125 -191.925781 C 99.800781 -202.207031 87.359375 -207.34375 72.753906 -207.34375 Z M 9.09375 -207.34375 "/></g></g></g><g fill="#7ed957" fill-opacity="1"><g transform="translate(8.781224, 290.694491)"><g><path d="M 127.171875 -190.984375 C 104.628906 -190.984375 85.398438 -183.023438 69.484375 -167.109375 C 53.472656 -151.097656 45.46875 -131.769531 45.46875 -109.125 C 45.46875 -86.488281 53.445312 -67.1875 69.40625 -51.21875 C 85.375 -35.257812 104.675781 -27.28125 127.3125 -27.28125 C 147.78125 -27.28125 165.5 -33.816406 180.46875 -46.890625 L 206.328125 -21.03125 C 184.160156 -0.945312 157.820312 9.09375 127.3125 9.09375 C 94.632812 9.09375 66.757812 -2.4375 43.6875 -25.5 C 20.625 -48.570312 9.09375 -76.445312 9.09375 -109.125 C 9.09375 -141.8125 20.648438 -169.710938 43.765625 -192.828125 C 66.785156 -215.847656 94.585938 -227.359375 127.171875 -227.359375 L 127.3125 -227.359375 C 160 -227.359375 187.898438 -215.847656 211.015625 -192.828125 C 212.523438 -191.304688 213.992188 -189.742188 215.421875 -188.140625 L 189.703125 -162.421875 C 188.273438 -164.023438 186.804688 -165.585938 185.296875 -167.109375 C 169.285156 -183.023438 149.957031 -190.984375 127.3125 -190.984375 Z M 127.171875 -190.984375 "/></g></g></g><g fill="#7ed957" fill-opacity="1"><g transform="translate(226.820378, 290.694491)"><g><path d="M 45.46875 -90.9375 L 45.46875 0 L 9.09375 0 L 9.09375 -218.265625 L 45.46875 -218.265625 L 45.46875 -127.3125 L 136.40625 -127.3125 L 136.40625 -218.265625 L 172.796875 -218.265625 L 172.796875 0 L 136.40625 0 L 136.40625 -90.9375 Z M 45.46875 -90.9375 "/></g></g></g><g fill="#7ed957" fill-opacity="1"><g transform="translate(397.983699, 290.694491)"><g><path d="M 118.21875 -150.0625 L 50.015625 0 L 9.09375 0 L 118.21875 -236.453125 L 227.359375 0 L 186.4375 0 Z M 118.21875 -150.0625 "/></g></g></g><g fill="#7ed957" fill-opacity="1"><g transform="translate(570.547863, 290.694491)"><g><path d="M 100.03125 -181.890625 L 100.03125 0 L 63.65625 0 L 63.65625 -181.890625 L 9.09375 -181.890625 L 9.09375 -218.265625 L 154.609375 -218.265625 L 154.609375 -181.890625 Z M 100.03125 -181.890625 "/></g></g></g><g fill="#7ed957" fill-opacity="1"><g transform="translate(735.749911, 290.694491)"><g><path d="M 45.46875 -90.9375 L 45.46875 0 L 9.09375 0 L 9.09375 -218.265625 L 45.46875 -218.265625 L 45.46875 -127.3125 L 136.40625 -127.3125 L 136.40625 -218.265625 L 172.796875 -218.265625 L 172.796875 0 L 136.40625 0 L 136.40625 -90.9375 Z M 45.46875 -90.9375 "/></g></g></g><g fill="#7ed957" fill-opacity="1"><g transform="translate(940.021618, 290.694491)"><g><path d="M 9.09375 -72.75 L 9.09375 -218.265625 L 45.46875 -218.265625 L 45.46875 -72.75 C 45.46875 -60.15625 49.894531 -49.425781 58.75 -40.5625 C 67.613281 -31.707031 78.34375 -27.28125 90.9375 -27.28125 C 103.539062 -27.28125 114.269531 -31.707031 123.125 -40.5625 C 131.976562 -49.425781 136.40625 -60.15625 136.40625 -72.75 L 136.40625 -218.265625 L 172.796875 -218.265625 L 172.796875 -72.75 C 172.796875 -50.113281 164.8125 -30.8125 148.84375 -14.84375 C 132.882812 1.113281 113.582031 9.09375 90.9375 9.09375 C 68.300781 9.09375 49 1.113281 33.03125 -14.84375 C 17.070312 -30.8125 9.09375 -50.113281 9.09375 -72.75 Z M 9.09375 -72.75 "/></g></g></g><g fill="#7ed957" fill-opacity="1"><g transform="translate(1144.293325, 290.694491)"><g><path d="M 72.75 -127.3125 C 80.332031 -127.3125 86.773438 -129.960938 92.078125 -135.265625 C 97.378906 -140.578125 100.03125 -147.023438 100.03125 -154.609375 C 100.03125 -162.179688 97.378906 -168.617188 92.078125 -173.921875 C 86.773438 -179.234375 80.332031 -181.890625 72.75 -181.890625 L 45.46875 -181.890625 L 45.46875 -36.375 L 109.125 -36.375 C 116.707031 -36.375 123.148438 -39.023438 128.453125 -44.328125 C 133.753906 -49.640625 136.40625 -56.082031 136.40625 -63.65625 C 136.40625 -71.238281 133.753906 -77.679688 128.453125 -82.984375 C 123.148438 -88.285156 116.707031 -90.9375 109.125 -90.9375 L 72.75 -90.9375 Z M 9.09375 -218.265625 L 72.75 -218.265625 C 90.375 -218.265625 105.390625 -212.054688 117.796875 -199.640625 C 130.203125 -187.234375 136.40625 -172.222656 136.40625 -154.609375 C 136.40625 -143.523438 133.945312 -133.429688 129.03125 -124.328125 C 138.3125 -121.398438 146.691406 -116.191406 154.171875 -108.703125 C 166.585938 -96.296875 172.796875 -81.28125 172.796875 -63.65625 C 172.796875 -46.039062 166.585938 -31.023438 154.171875 -18.609375 C 141.765625 -6.203125 126.75 0 109.125 0 L 9.09375 0 Z M 9.09375 -218.265625 "/></g></g></g></g></g></svg>