<svg xmlns="http://www.w3.org/2000/svg" xmlns:xlink="http://www.w3.org/1999/xlink" width="1118" zoomAndPan="magnify" viewBox="0 0 838.5 289.499996" height="386" preserveAspectRatio="xMidYMid meet" version="1.2"><defs><clipPath id="b7c28b0465"><path d="M 0.472656 0 L 257 0 L 257 289 L 0.472656 289 Z M 0.472656 0 "/></clipPath><clipPath id="61f4b9cdd8"><path d="M 21 96 L 180 96 L 180 260 L 21 260 Z M 21 96 "/></clipPath><clipPath id="39a7b91a1a"><path d="M 187.425781 0.00390625 L 258.066406 226.59375 L 58.699219 288.75 L -11.945312 62.160156 Z M 187.425781 0.00390625 "/></clipPath><clipPath id="88c161ffed"><path d="M 187.425781 0.00390625 L 258.066406 226.59375 L 58.699219 288.75 L -11.945312 62.160156 Z M 187.425781 0.00390625 "/></clipPath><clipPath id="720f9f208f"><path d="M 66 29 L 225 29 L 225 193 L 66 193 Z M 66 29 "/></clipPath><clipPath id="4c66e18dba"><path d="M 187.425781 0.00390625 L 258.066406 226.59375 L 58.699219 288.75 L -11.945312 62.160156 Z M 187.425781 0.00390625 "/></clipPath><clipPath id="c68d684378"><path d="M 187.425781 0.00390625 L 258.066406 226.59375 L 58.699219 288.75 L -11.945312 62.160156 Z M 187.425781 0.00390625 "/></clipPath><clipPath id="27dcb65c9f"><path d="M 90 102.800781 L 190.367188 102.800781 L 190.367188 179 L 90 179 Z M 90 102.800781 "/></clipPath><clipPath id="628436c2d2"><path d="M 64 102.800781 L 164 102.800781 L 164 179 L 64 179 Z M 64 102.800781 "/></clipPath><clipPath id="c7949bb653"><path d="M 68 124 L 214.253906 124 L 214.253906 225 L 68 225 Z M 68 124 "/></clipPath><clipPath id="b6aceb9354"><path d="M 31.621094 66 L 178 66 L 178 168 L 31.621094 168 Z M 31.621094 66 "/></clipPath><clipPath id="c99d658e47"><rect x="0" width="257" y="0" height="289"/></clipPath><clipPath id="6fc6e51104"><path d="M 506 21 L 570.835938 21 L 570.835938 97 L 506 97 Z M 506 21 "/></clipPath><clipPath id="c32d028940"><rect x="0" width="571" y="0" height="115"/></clipPath></defs><g id="89775bd2ea"><g clip-rule="nonzero" clip-path="url(#b7c28b0465)"><g transform="matrix(1,0,0,1,0.000000000000000056,0)"><g clip-path="url(#c99d658e47)"><g clip-rule="nonzero" clip-path="url(#61f4b9cdd8)"><g clip-rule="nonzero" clip-path="url(#39a7b91a1a)"><g clip-rule="nonzero" clip-path="url(#88c161ffed)"><path style=" stroke:none;fill-rule:nonzero;fill:#ffde59;fill-opacity:1;" d="M 153.03125 259.625 L 179.460938 230.960938 L 141.425781 222.398438 L 144.390625 231.914062 C 137.625 233.808594 130.71875 235.269531 123.621094 235.667969 C 114.617188 235.972656 105.53125 235.085938 96.625 232.960938 C 78.949219 228.316406 62.394531 218.5 49.933594 204.472656 C 37.5625 190.460938 29.078125 172.589844 26.542969 153.535156 C 23.917969 134.519531 27.203125 114.507812 35.957031 96.90625 C 25.84375 113.753906 20.742188 133.871094 21.90625 153.972656 C 22.980469 174.082031 30.371094 193.921875 42.730469 210.375 C 55.164062 226.816406 72.730469 239.410156 92.609375 246.332031 C 102.605469 249.597656 113.082031 251.496094 123.714844 251.960938 C 132.460938 252.171875 141.183594 251.039062 149.800781 249.261719 Z M 153.03125 259.625 "/></g></g></g><g clip-rule="nonzero" clip-path="url(#720f9f208f)"><g clip-rule="nonzero" clip-path="url(#4c66e18dba)"><g clip-rule="nonzero" clip-path="url(#c68d684378)"><path style=" stroke:none;fill-rule:nonzero;fill:#ffde59;fill-opacity:1;" d="M 149.609375 56.042969 C 167.289062 60.683594 183.84375 70.503906 196.304688 84.53125 C 208.675781 98.542969 217.160156 116.414062 219.695312 135.46875 C 222.316406 154.484375 219.035156 174.492188 210.277344 192.097656 C 220.394531 175.25 225.492188 155.132812 224.328125 135.03125 C 223.253906 114.921875 215.863281 95.082031 203.503906 78.628906 C 191.070312 62.1875 173.503906 49.59375 153.628906 42.671875 C 143.628906 39.40625 133.152344 37.507812 122.519531 37.042969 C 113.773438 36.832031 105.050781 37.964844 96.4375 39.742188 L 93.203125 29.378906 L 66.773438 58.042969 L 104.808594 66.605469 L 101.84375 57.089844 C 108.609375 55.195312 115.515625 53.734375 122.613281 53.335938 C 131.617188 53.03125 140.707031 53.917969 149.609375 56.042969 Z M 149.609375 56.042969 "/></g></g></g><g clip-rule="nonzero" clip-path="url(#27dcb65c9f)"><path style=" stroke:none;fill-rule:nonzero;fill:#38b6ff;fill-opacity:1;" d="M 182.714844 102.800781 L 121.832031 164.128906 L 97.742188 139.585938 L 90.304688 147.082031 L 121.832031 178.996094 L 190.144531 110.136719 Z M 182.714844 102.800781 "/></g><g clip-rule="nonzero" clip-path="url(#628436c2d2)"><path style=" stroke:none;fill-rule:nonzero;fill:#38b6ff;fill-opacity:1;" d="M 156.441406 102.800781 L 95.558594 164.128906 L 71.46875 139.585938 L 64.03125 147.082031 L 95.558594 178.996094 L 163.871094 110.136719 Z M 156.441406 102.800781 "/></g><g clip-rule="nonzero" clip-path="url(#c7949bb653)"><path style=" stroke:none;fill-rule:nonzero;fill:#00bf63;fill-opacity:1;" d="M 214.003906 149.949219 L 199.039062 124.03125 L 184.074219 149.949219 L 191.722656 149.949219 C 191.566406 155.339844 191.058594 160.734375 189.730469 166.023438 C 187.894531 172.691406 185.171875 179.148438 181.582031 185.1875 C 174.140625 197.078125 163.164062 206.96875 150.039062 212.894531 C 136.945312 218.757812 121.914062 220.890625 107.371094 218.394531 C 92.839844 215.972656 78.925781 208.996094 68.03125 198.558594 C 78.0625 209.820312 91.640625 218.152344 106.632812 221.890625 C 121.613281 225.699219 137.839844 224.816406 152.71875 219.515625 C 167.605469 214.164062 180.847656 204.167969 190.460938 191.1875 C 195.136719 184.605469 198.921875 177.363281 201.691406 169.675781 C 203.839844 163.316406 205.003906 156.667969 205.671875 149.949219 Z M 214.003906 149.949219 "/></g><g clip-rule="nonzero" clip-path="url(#b6aceb9354)"><path style=" stroke:none;fill-rule:nonzero;fill:#00bf63;fill-opacity:1;" d="M 64.050781 105.949219 C 71.488281 94.054688 82.464844 84.167969 95.589844 78.242188 C 108.683594 72.378906 123.714844 70.242188 138.257812 72.738281 C 152.792969 75.164062 166.703125 82.136719 177.601562 92.574219 C 167.566406 81.316406 153.988281 72.984375 138.996094 69.242188 C 124.015625 65.4375 107.789062 66.320312 92.910156 71.617188 C 78.023438 76.972656 64.785156 86.96875 55.167969 99.949219 C 50.492188 106.53125 46.710938 113.773438 43.941406 121.457031 C 41.789062 127.816406 40.625 134.46875 39.960938 141.1875 L 31.628906 141.1875 L 46.59375 167.101562 L 61.554688 141.1875 L 53.90625 141.1875 C 54.0625 135.796875 54.570312 130.402344 55.898438 125.109375 C 57.734375 118.445312 60.457031 111.988281 64.050781 105.949219 Z M 64.050781 105.949219 "/></g></g></g></g><g transform="matrix(1,0,0,1,238,87)"><g clip-path="url(#c32d028940)"><g style="fill:#1d626f;fill-opacity:1;"><g transform="translate(0.214161, 92.040591)"><path style="stroke:none" d="M 38.636719 -56.363281 C 32.246094 -56.363281 26.792969 -54.105469 22.28125 -49.59375 C 17.742188 -45.054688 15.472656 -39.574219 15.472656 -33.152344 C 15.472656 -26.734375 17.734375 -21.261719 22.261719 -16.734375 C 26.785156 -12.210938 32.257812 -9.945312 38.679688 -9.945312 C 44.480469 -9.945312 49.5 -11.796875 53.734375 -15.496094 L 54.902344 -16.515625 L 65.085938 -6.328125 L 63.796875 -5.160156 C 56.746094 1.226562 48.375 4.421875 38.679688 4.421875 C 28.292969 4.421875 19.433594 0.753906 12.101562 -6.578125 C 4.769531 -13.910156 1.105469 -22.765625 1.105469 -33.152344 C 1.105469 -43.542969 4.777344 -52.40625 12.125 -59.753906 C 19.441406 -67.070312 28.277344 -70.730469 38.636719 -70.730469 L 38.679688 -70.730469 C 49.066406 -70.730469 57.929688 -67.070312 65.277344 -59.753906 C 65.761719 -59.269531 66.234375 -58.769531 66.6875 -58.253906 L 67.71875 -57.085938 L 57.554688 -46.921875 L 56.386719 -48.246094 C 55.980469 -48.710938 55.558594 -49.160156 55.121094 -49.59375 C 50.582031 -54.105469 45.101562 -56.363281 38.679688 -56.363281 Z M 38.636719 -59.675781 L 38.679688 -59.675781 C 46.015625 -59.675781 52.277344 -57.097656 57.464844 -51.941406 C 57.949219 -51.453125 58.417969 -50.953125 58.875 -50.441406 L 57.632812 -49.34375 L 56.460938 -50.515625 L 64.273438 -58.328125 L 65.445312 -57.15625 L 64.203125 -56.058594 C 63.792969 -56.523438 63.371094 -56.972656 62.9375 -57.40625 C 56.238281 -64.078125 48.152344 -67.414062 38.679688 -67.414062 L 38.636719 -67.414062 C 29.195312 -67.414062 21.136719 -64.078125 14.46875 -57.410156 C 7.769531 -50.710938 4.421875 -42.625 4.421875 -33.152344 C 4.421875 -23.683594 7.761719 -15.605469 14.445312 -8.921875 C 21.132812 -2.238281 29.207031 1.105469 38.679688 1.105469 C 47.519531 1.105469 55.152344 -1.800781 61.570312 -7.617188 L 62.683594 -6.390625 L 61.511719 -5.21875 L 53.652344 -13.074219 L 54.824219 -14.246094 L 55.914062 -12.996094 C 51.054688 -8.753906 45.3125 -6.628906 38.679688 -6.628906 C 31.34375 -6.628906 25.089844 -9.21875 19.917969 -14.390625 C 14.742188 -19.5625 12.15625 -25.816406 12.15625 -33.152344 C 12.15625 -40.492188 14.75 -46.753906 19.9375 -51.941406 C 25.097656 -57.097656 31.328125 -59.675781 38.636719 -59.675781 Z M 38.636719 -59.675781 "/></g></g><g style="fill:#1d626f;fill-opacity:1;"><g transform="translate(66.481182, 92.040591)"><path style="stroke:none" d="M 15.472656 -27.628906 L 15.472656 1.65625 L 1.105469 1.65625 L 1.105469 -67.964844 L 15.472656 -67.964844 L 15.472656 -38.679688 L 13.8125 -38.679688 L 13.8125 -40.335938 L 41.441406 -40.335938 L 41.441406 -38.679688 L 39.785156 -38.679688 L 39.785156 -67.964844 L 54.152344 -67.964844 L 54.152344 1.65625 L 39.785156 1.65625 L 39.785156 -27.628906 L 41.441406 -27.628906 L 41.441406 -25.972656 L 13.8125 -25.972656 L 13.8125 -27.628906 Z M 12.15625 -29.285156 L 43.101562 -29.285156 L 43.101562 0 L 41.441406 0 L 41.441406 -1.65625 L 52.496094 -1.65625 L 52.496094 0 L 50.835938 0 L 50.835938 -66.308594 L 52.496094 -66.308594 L 52.496094 -64.652344 L 41.441406 -64.652344 L 41.441406 -66.308594 L 43.101562 -66.308594 L 43.101562 -37.023438 L 12.15625 -37.023438 L 12.15625 -66.308594 L 13.8125 -66.308594 L 13.8125 -64.652344 L 2.761719 -64.652344 L 2.761719 -66.308594 L 4.421875 -66.308594 L 4.421875 0 L 2.761719 0 L 2.761719 -1.65625 L 13.8125 -1.65625 L 13.8125 0 L 12.15625 0 Z M 12.15625 -29.285156 "/></g></g><g style="fill:#1d626f;fill-opacity:1;"><g transform="translate(118.502236, 92.040591)"><path style="stroke:none" d="M 37.425781 -44.902344 L 16.261719 1.65625 L 0.171875 1.65625 L 35.917969 -75.789062 L 71.664062 1.65625 L 55.570312 1.65625 L 34.40625 -44.902344 L 35.917969 -45.585938 Z M 35.917969 -49.59375 L 58.148438 -0.6875 L 56.636719 0 L 56.636719 -1.65625 L 69.070312 -1.65625 L 69.070312 0 L 67.566406 0.695312 L 34.410156 -71.140625 L 35.917969 -71.835938 L 37.421875 -71.140625 L 4.269531 0.695312 L 2.761719 0 L 2.761719 -1.65625 L 15.195312 -1.65625 L 15.195312 0 L 13.6875 -0.6875 L 34.40625 -46.273438 Z M 35.917969 -49.59375 "/></g></g><g style="fill:#1d626f;fill-opacity:1;"><g transform="translate(170.954981, 92.040591)"><path style="stroke:none" d="M 32.050781 -55.257812 L 32.050781 1.65625 L 17.683594 1.65625 L 17.683594 -55.257812 L 19.339844 -55.257812 L 19.339844 -53.597656 L 1.105469 -53.597656 L 1.105469 -67.964844 L 48.625 -67.964844 L 48.625 -53.597656 L 30.390625 -53.597656 L 30.390625 -55.257812 Z M 28.734375 -56.914062 L 46.96875 -56.914062 L 46.96875 -55.257812 L 45.3125 -55.257812 L 45.3125 -66.308594 L 46.96875 -66.308594 L 46.96875 -64.652344 L 2.761719 -64.652344 L 2.761719 -66.308594 L 4.421875 -66.308594 L 4.421875 -55.257812 L 2.761719 -55.257812 L 2.761719 -56.914062 L 20.996094 -56.914062 L 20.996094 0 L 19.339844 0 L 19.339844 -1.65625 L 30.390625 -1.65625 L 30.390625 0 L 28.734375 0 Z M 28.734375 -56.914062 "/></g></g><g style="fill:#1d626f;fill-opacity:1;"><g transform="translate(221.162909, 92.040591)"><path style="stroke:none" d="M 15.472656 -27.628906 L 15.472656 1.65625 L 1.105469 1.65625 L 1.105469 -67.964844 L 15.472656 -67.964844 L 15.472656 -38.679688 L 13.8125 -38.679688 L 13.8125 -40.335938 L 41.441406 -40.335938 L 41.441406 -38.679688 L 39.785156 -38.679688 L 39.785156 -67.964844 L 54.152344 -67.964844 L 54.152344 1.65625 L 39.785156 1.65625 L 39.785156 -27.628906 L 41.441406 -27.628906 L 41.441406 -25.972656 L 13.8125 -25.972656 L 13.8125 -27.628906 Z M 12.15625 -29.285156 L 43.101562 -29.285156 L 43.101562 0 L 41.441406 0 L 41.441406 -1.65625 L 52.496094 -1.65625 L 52.496094 0 L 50.835938 0 L 50.835938 -66.308594 L 52.496094 -66.308594 L 52.496094 -64.652344 L 41.441406 -64.652344 L 41.441406 -66.308594 L 43.101562 -66.308594 L 43.101562 -37.023438 L 12.15625 -37.023438 L 12.15625 -66.308594 L 13.8125 -66.308594 L 13.8125 -64.652344 L 2.761719 -64.652344 L 2.761719 -66.308594 L 4.421875 -66.308594 L 4.421875 0 L 2.761719 0 L 2.761719 -1.65625 L 13.8125 -1.65625 L 13.8125 0 L 12.15625 0 Z M 12.15625 -29.285156 "/></g></g><g style="fill:#1d626f;fill-opacity:1;"><g transform="translate(283.242475, 92.040591)"><path style="stroke:none" d="M 1.105469 -22.101562 L 1.105469 -67.964844 L 15.472656 -67.964844 L 15.472656 -22.101562 C 15.472656 -18.734375 16.65625 -15.863281 19.023438 -13.496094 C 21.390625 -11.128906 24.257812 -9.945312 27.628906 -9.945312 C 31 -9.945312 33.867188 -11.128906 36.234375 -13.496094 C 38.601562 -15.863281 39.785156 -18.734375 39.785156 -22.101562 L 39.785156 -67.964844 L 54.152344 -67.964844 L 54.152344 -22.101562 C 54.152344 -14.765625 51.566406 -8.511719 46.390625 -3.339844 C 41.21875 1.835938 34.964844 4.421875 27.628906 4.421875 C 20.292969 4.421875 14.039062 1.835938 8.863281 -3.339844 C 3.691406 -8.511719 1.105469 -14.765625 1.105469 -22.101562 Z M 4.421875 -22.101562 C 4.421875 -15.683594 6.683594 -10.210938 11.210938 -5.683594 C 15.734375 -1.15625 21.207031 1.105469 27.628906 1.105469 C 34.050781 1.105469 39.523438 -1.15625 44.046875 -5.683594 C 48.574219 -10.210938 50.835938 -15.683594 50.835938 -22.101562 L 50.835938 -66.308594 L 52.496094 -66.308594 L 52.496094 -64.652344 L 41.441406 -64.652344 L 41.441406 -66.308594 L 43.101562 -66.308594 L 43.101562 -22.101562 C 43.101562 -17.816406 41.59375 -14.167969 38.578125 -11.152344 C 35.5625 -8.136719 31.914062 -6.628906 27.628906 -6.628906 C 23.34375 -6.628906 19.691406 -8.136719 16.679688 -11.152344 C 13.664062 -14.167969 12.15625 -17.816406 12.15625 -22.101562 L 12.15625 -66.308594 L 13.8125 -66.308594 L 13.8125 -64.652344 L 2.761719 -64.652344 L 2.761719 -66.308594 L 4.421875 -66.308594 Z M 4.421875 -22.101562 "/></g></g><g style="fill:#1d626f;fill-opacity:1;"><g transform="translate(345.322059, 92.040591)"><path style="stroke:none" d="M 22.101562 -40.335938 C 23.949219 -40.335938 25.515625 -40.980469 26.800781 -42.269531 C 28.089844 -43.558594 28.734375 -45.125 28.734375 -46.96875 C 28.734375 -48.8125 28.089844 -50.378906 26.800781 -51.667969 C 25.515625 -52.957031 23.949219 -53.597656 22.101562 -53.597656 L 13.8125 -53.597656 L 13.8125 -55.257812 L 15.472656 -55.257812 L 15.472656 -11.050781 L 13.8125 -11.050781 L 13.8125 -12.710938 L 33.152344 -12.710938 C 35 -12.710938 36.566406 -13.351562 37.851562 -14.640625 C 39.140625 -15.929688 39.785156 -17.496094 39.785156 -19.339844 C 39.785156 -21.183594 39.140625 -22.75 37.851562 -24.039062 C 36.566406 -25.328125 35 -25.972656 33.152344 -25.972656 L 20.445312 -25.972656 L 20.445312 -40.335938 Z M 22.101562 -37.023438 L 22.101562 -38.679688 L 23.761719 -38.679688 L 23.761719 -27.628906 L 22.101562 -27.628906 L 22.101562 -29.285156 L 33.152344 -29.285156 C 35.914062 -29.285156 38.261719 -28.320312 40.199219 -26.382812 C 42.132812 -24.449219 43.101562 -22.101562 43.101562 -19.339844 C 43.101562 -16.578125 42.132812 -14.230469 40.199219 -12.296875 C 38.261719 -10.363281 35.914062 -9.394531 33.152344 -9.394531 L 12.15625 -9.394531 L 12.15625 -56.914062 L 22.101562 -56.914062 C 24.863281 -56.914062 27.210938 -55.945312 29.144531 -54.011719 C 31.082031 -52.078125 32.050781 -49.730469 32.050781 -46.96875 C 32.050781 -44.207031 31.082031 -41.859375 29.144531 -39.925781 C 27.210938 -37.988281 24.863281 -37.023438 22.101562 -37.023438 Z M 2.761719 -67.964844 L 22.101562 -67.964844 C 27.914062 -67.964844 32.867188 -65.917969 36.960938 -61.824219 C 41.054688 -57.730469 43.101562 -52.78125 43.101562 -46.96875 C 43.101562 -43.320312 42.285156 -39.992188 40.65625 -36.984375 L 39.199219 -37.773438 L 39.699219 -39.355469 C 42.777344 -38.378906 45.546875 -36.660156 48.011719 -34.195312 C 52.105469 -30.101562 54.152344 -25.152344 54.152344 -19.339844 C 54.152344 -13.527344 52.105469 -8.578125 48.011719 -4.484375 C 43.917969 -0.390625 38.964844 1.65625 33.152344 1.65625 L 1.105469 1.65625 L 1.105469 -67.964844 Z M 2.761719 -64.652344 L 2.761719 -66.308594 L 4.421875 -66.308594 L 4.421875 0 L 2.761719 0 L 2.761719 -1.65625 L 33.152344 -1.65625 C 38.050781 -1.65625 42.21875 -3.382812 45.667969 -6.828125 C 49.113281 -10.273438 50.835938 -14.445312 50.835938 -19.339844 C 50.835938 -24.234375 49.113281 -28.40625 45.667969 -31.851562 C 43.585938 -33.933594 41.261719 -35.382812 38.699219 -36.191406 L 36.785156 -36.796875 L 37.742188 -38.5625 C 39.101562 -41.078125 39.785156 -43.882812 39.785156 -46.96875 C 39.785156 -51.863281 38.0625 -56.035156 34.617188 -59.480469 C 31.167969 -62.925781 27 -64.652344 22.101562 -64.652344 Z M 2.761719 -64.652344 "/></g></g><g style="fill:#1d626f;fill-opacity:1;"><g transform="translate(398.810871, 92.040591)"><path style="stroke:none" d="M 7.992188 -58.503906 C 9.027344 -60.722656 10.460938 -62.753906 12.296875 -64.589844 C 16.390625 -68.683594 21.34375 -70.730469 27.152344 -70.730469 C 32.964844 -70.730469 37.917969 -68.683594 42.011719 -64.589844 C 46.105469 -60.496094 48.152344 -55.542969 48.152344 -49.730469 C 48.152344 -44.734375 46.097656 -40.617188 41.996094 -37.378906 L 40.96875 -38.679688 L 41.710938 -40.164062 C 45.65625 -38.191406 48.632812 -35.699219 50.636719 -32.691406 C 52.664062 -29.652344 53.675781 -26.121094 53.675781 -22.101562 C 53.675781 -14.765625 51.089844 -8.511719 45.917969 -3.339844 C 40.746094 1.835938 34.488281 4.421875 27.152344 4.421875 C 19.816406 4.421875 13.566406 1.824219 8.40625 -3.363281 C 4.542969 -7.195312 2.121094 -11.667969 1.136719 -16.78125 L 0.828125 -18.378906 L 14.921875 -21.355469 L 15.230469 -19.679688 C 15.65625 -17.347656 16.765625 -15.296875 18.5625 -13.527344 C 20.921875 -11.140625 23.789062 -9.945312 27.152344 -9.945312 C 30.523438 -9.945312 33.390625 -11.128906 35.757812 -13.496094 C 38.125 -15.863281 39.308594 -18.734375 39.308594 -22.101562 L 40.96875 -22.101562 L 39.328125 -21.851562 C 38.609375 -26.554688 33.414062 -28.90625 23.742188 -28.90625 C 22.253906 -28.90625 20.664062 -28.851562 18.976562 -28.738281 L 17.207031 -28.621094 L 17.207031 -43.101562 L 18.863281 -43.101562 C 28.8125 -43.101562 33.785156 -45.3125 33.785156 -49.730469 C 33.785156 -51.574219 33.140625 -53.140625 31.851562 -54.429688 C 30.566406 -55.71875 29 -56.363281 27.152344 -56.363281 C 25.308594 -56.363281 23.742188 -55.71875 22.453125 -54.429688 C 21.570312 -53.546875 20.980469 -52.542969 20.683594 -51.421875 L 20.109375 -49.257812 L 7.375 -57.171875 Z M 11 -57.105469 L 9.496094 -57.804688 L 10.371094 -59.210938 L 19.957031 -53.253906 L 19.082031 -51.847656 L 17.480469 -52.273438 C 17.929688 -53.96875 18.804688 -55.46875 20.109375 -56.773438 C 22.046875 -58.710938 24.394531 -59.675781 27.152344 -59.675781 C 29.914062 -59.675781 32.261719 -58.710938 34.195312 -56.773438 C 36.132812 -54.839844 37.101562 -52.492188 37.101562 -49.730469 C 37.101562 -48.015625 36.660156 -46.5 35.785156 -45.1875 C 34.933594 -43.90625 33.683594 -42.855469 32.039062 -42.03125 C 29.042969 -40.535156 24.652344 -39.785156 18.863281 -39.785156 L 18.863281 -41.441406 L 20.523438 -41.441406 L 20.523438 -30.390625 L 18.863281 -30.390625 L 18.753906 -32.046875 C 20.519531 -32.164062 22.179688 -32.222656 23.742188 -32.222656 C 29.308594 -32.222656 33.644531 -31.460938 36.746094 -29.9375 C 38.410156 -29.121094 39.730469 -28.082031 40.710938 -26.824219 C 41.714844 -25.539062 42.347656 -24.050781 42.605469 -22.355469 L 42.625 -22.230469 L 42.625 -22.101562 C 42.625 -17.816406 41.117188 -14.167969 38.105469 -11.152344 C 35.089844 -8.136719 31.4375 -6.628906 27.152344 -6.628906 C 22.863281 -6.628906 19.226562 -8.140625 16.234375 -11.167969 C 13.941406 -13.425781 12.519531 -16.066406 11.96875 -19.085938 L 13.597656 -19.382812 L 13.941406 -17.761719 L 3.105469 -15.472656 L 2.761719 -17.09375 L 4.390625 -17.410156 C 5.246094 -12.964844 7.371094 -9.0625 10.757812 -5.703125 C 15.269531 -1.164062 20.734375 1.105469 27.152344 1.105469 C 33.574219 1.105469 39.046875 -1.15625 43.574219 -5.683594 C 48.097656 -10.210938 50.363281 -15.683594 50.363281 -22.101562 C 50.363281 -25.453125 49.535156 -28.367188 47.878906 -30.851562 C 46.199219 -33.371094 43.648438 -35.488281 40.226562 -37.195312 L 37.890625 -38.363281 L 39.941406 -39.980469 C 43.203125 -42.554688 44.835938 -45.804688 44.835938 -49.730469 C 44.835938 -54.625 43.113281 -58.796875 39.667969 -62.242188 C 36.21875 -65.691406 32.050781 -67.414062 27.152344 -67.414062 C 22.257812 -67.414062 18.085938 -65.691406 14.640625 -62.242188 C 13.082031 -60.683594 11.867188 -58.972656 11 -57.105469 Z M 11 -57.105469 "/></g></g><g style="fill:#1d626f;fill-opacity:1;"><g transform="translate(451.824817, 92.040591)"><path style="stroke:none" d="M 27.628906 -9.945312 C 31 -9.945312 33.867188 -11.128906 36.234375 -13.496094 C 38.601562 -15.863281 39.785156 -18.734375 39.785156 -22.101562 C 39.785156 -25.472656 38.601562 -28.339844 36.234375 -30.707031 C 33.867188 -33.074219 31 -34.257812 27.628906 -34.257812 C 24.257812 -34.257812 21.390625 -33.074219 19.023438 -30.707031 C 16.65625 -28.339844 15.472656 -25.472656 15.472656 -22.101562 C 15.472656 -18.734375 16.65625 -15.863281 19.023438 -13.496094 C 21.390625 -11.128906 24.257812 -9.945312 27.628906 -9.945312 Z M 27.628906 -6.628906 C 23.34375 -6.628906 19.691406 -8.136719 16.679688 -11.152344 C 13.664062 -14.167969 12.15625 -17.816406 12.15625 -22.101562 C 12.15625 -26.386719 13.664062 -30.039062 16.679688 -33.054688 C 19.691406 -36.066406 23.34375 -37.574219 27.628906 -37.574219 C 31.914062 -37.574219 35.5625 -36.066406 38.578125 -33.054688 C 41.59375 -30.039062 43.101562 -26.386719 43.101562 -22.101562 C 43.101562 -17.816406 41.59375 -14.167969 38.578125 -11.152344 C 35.5625 -8.136719 31.914062 -6.628906 27.628906 -6.628906 Z M 46.09375 -65.257812 L 30.25 -45.875 L 28.964844 -46.925781 L 29.042969 -48.582031 C 35.769531 -48.273438 41.558594 -45.710938 46.410156 -40.890625 C 51.570312 -35.699219 54.152344 -29.4375 54.152344 -22.101562 C 54.152344 -14.765625 51.566406 -8.511719 46.390625 -3.339844 C 41.21875 1.835938 34.964844 4.421875 27.628906 4.421875 C 20.292969 4.421875 14.039062 1.835938 8.863281 -3.339844 C 3.691406 -8.511719 1.105469 -14.765625 1.105469 -22.101562 C 1.105469 -27.625 2.570312 -32.527344 5.496094 -36.808594 L 6.863281 -35.875 L 5.691406 -34.703125 L 4.558594 -35.835938 L 6.128906 -37.648438 L 7.382812 -36.566406 L 6.019531 -37.511719 C 6.515625 -38.222656 7.054688 -38.914062 7.636719 -39.589844 L 8.894531 -38.507812 L 7.605469 -39.554688 L 30.726562 -67.964844 L 48.304688 -67.964844 Z M 43.527344 -67.359375 L 44.808594 -66.308594 L 44.808594 -64.652344 L 31.515625 -64.652344 L 31.515625 -66.308594 L 32.800781 -65.261719 L 10.164062 -37.441406 L 10.148438 -37.421875 C 9.636719 -36.835938 9.171875 -36.234375 8.742188 -35.617188 L 8.691406 -35.546875 L 8.074219 -34.832031 L 6.820312 -35.917969 L 7.992188 -37.089844 L 9.007812 -36.074219 L 8.234375 -34.9375 C 5.691406 -31.21875 4.421875 -26.941406 4.421875 -22.101562 C 4.421875 -15.683594 6.683594 -10.210938 11.210938 -5.683594 C 15.734375 -1.15625 21.207031 1.105469 27.628906 1.105469 C 34.050781 1.105469 39.523438 -1.15625 44.046875 -5.683594 C 48.574219 -10.210938 50.835938 -15.683594 50.835938 -22.101562 C 50.835938 -28.523438 48.582031 -34.003906 44.074219 -38.539062 C 39.828125 -42.757812 34.769531 -45 28.890625 -45.269531 L 25.59375 -45.417969 Z M 43.527344 -67.359375 "/></g></g><g clip-rule="nonzero" clip-path="url(#6fc6e51104)"><g style="fill:#1d626f;fill-opacity:1;"><g transform="translate(505.31363, 92.040591)"><path style="stroke:none" d="M 33.152344 4.421875 C 24.238281 4.421875 16.648438 0.722656 10.390625 -6.679688 C 4.199219 -13.996094 1.105469 -22.820312 1.105469 -33.152344 C 1.105469 -43.488281 4.199219 -52.3125 10.390625 -59.628906 C 16.648438 -67.03125 24.238281 -70.730469 33.152344 -70.730469 C 42.070312 -70.730469 49.660156 -67.03125 55.917969 -59.628906 C 62.109375 -52.3125 65.203125 -43.488281 65.203125 -33.152344 C 65.203125 -22.820312 62.109375 -13.996094 55.917969 -6.679688 C 49.660156 0.722656 42.070312 4.421875 33.152344 4.421875 Z M 33.152344 1.105469 C 41.046875 1.105469 47.789062 -2.203125 53.386719 -8.820312 C 59.054688 -15.519531 61.886719 -23.628906 61.886719 -33.152344 C 61.886719 -42.679688 59.054688 -50.789062 53.386719 -57.488281 C 47.789062 -64.105469 41.046875 -67.414062 33.152344 -67.414062 C 25.261719 -67.414062 18.519531 -64.105469 12.921875 -57.488281 C 7.253906 -50.789062 4.421875 -42.679688 4.421875 -33.152344 C 4.421875 -23.628906 7.253906 -15.519531 12.921875 -8.820312 C 18.519531 -2.203125 25.261719 1.105469 33.152344 1.105469 Z M 33.152344 -9.945312 C 37.964844 -9.945312 42.09375 -12.15625 45.53125 -16.582031 C 49.066406 -21.128906 50.835938 -26.65625 50.835938 -33.152344 C 50.835938 -39.652344 49.066406 -45.179688 45.53125 -49.726562 C 42.09375 -54.152344 37.964844 -56.363281 33.152344 -56.363281 C 28.34375 -56.363281 24.214844 -54.152344 20.777344 -49.726562 C 17.242188 -45.179688 15.472656 -39.652344 15.472656 -33.152344 C 15.472656 -26.65625 17.242188 -21.128906 20.777344 -16.582031 C 24.214844 -12.15625 28.34375 -9.945312 33.152344 -9.945312 Z M 33.152344 -6.628906 C 27.261719 -6.628906 22.261719 -9.269531 18.160156 -14.546875 C 14.15625 -19.695312 12.15625 -25.898438 12.15625 -33.152344 C 12.15625 -40.410156 14.15625 -46.613281 18.160156 -51.761719 C 22.261719 -57.039062 27.261719 -59.675781 33.152344 -59.675781 C 39.046875 -59.675781 44.046875 -57.039062 48.148438 -51.761719 C 52.152344 -46.613281 54.152344 -40.410156 54.152344 -33.152344 C 54.152344 -25.898438 52.152344 -19.695312 48.148438 -14.546875 C 44.046875 -9.269531 39.046875 -6.628906 33.152344 -6.628906 Z M 33.152344 -6.628906 "/></g></g></g></g></g></g></svg>